<svg width="1440" height="3632" viewBox="0 0 1440 3632" fill="none" xmlns="http://www.w3.org/2000/svg">
<g clip-path="url(#clip0_508_166)">
<rect width="1440" height="3632" fill="#F6F6F6"/>
<rect width="1440" height="3632" fill="url(#paint0_linear_508_166)"/>
<path d="M1275 3172C1236.5 3172 1236.5 3172 1236.5 3221C1236.5 3172 1236.5 3172 1198 3172C1236.5 3172 1236.5 3172 1236.5 3123C1236.5 3172 1236.5 3172 1275 3172Z" fill="#F2F2F2"/>
<path d="M406 3037.5C318.5 3037.5 318.5 3037.5 318.5 3149C318.5 3037.5 318.5 3037.5 231 3037.5C318.5 3037.5 318.5 3037.5 318.5 2926C318.5 3037.5 318.5 3037.5 406 3037.5Z" fill="#F2F2F2"/>
<path d="M1049 2790C1010.5 2790 1010.5 2790 1010.5 2839C1010.5 2790 1010.5 2790 972 2790C1010.5 2790 1010.5 2790 1010.5 2741C1010.5 2790 1010.5 2790 1049 2790Z" fill="#F2F2F2"/>
<path d="M678 3073C639.5 3073 639.5 3073 639.5 3122C639.5 3073 639.5 3073 601 3073C639.5 3073 639.5 3073 639.5 3024C639.5 3073 639.5 3073 678 3073Z" fill="#F2F2F2"/>
<path d="M1346 2526C1272 2526 1272 2526 1272 2620C1272 2526 1272 2526 1198 2526C1272 2526 1272 2526 1272 2432C1272 2526 1272 2526 1346 2526Z" fill="#F2F2F2"/>
<path d="M254 1467C180 1467 180 1467 180 1561C180 1467 180 1467 106 1467C180 1467 180 1467 180 1373C180 1467 180 1467 254 1467Z" fill="#F2F2F2"/>
<path d="M266 2602C227.5 2602 227.5 2602 227.5 2651C227.5 2602 227.5 2602 189 2602C227.5 2602 227.5 2602 227.5 2553C227.5 2602 227.5 2602 266 2602Z" fill="#F2F2F2"/>
<path d="M168 2839C129.5 2839 129.5 2839 129.5 2888C129.5 2839 129.5 2839 91 2839C129.5 2839 129.5 2839 129.5 2790C129.5 2839 129.5 2839 168 2839Z" fill="#F2F2F2"/>
<path d="M1287 2031C1248.5 2031 1248.5 2031 1248.5 2080C1248.5 2031 1248.5 2031 1210 2031C1248.5 2031 1248.5 2031 1248.5 1982C1248.5 2031 1248.5 2031 1287 2031Z" fill="#F2F2F2"/>
<path d="M145 1929C106.5 1929 106.5 1929 106.5 1978C106.5 1929 106.5 1929 68 1929C106.5 1929 106.5 1929 106.5 1880C106.5 1929 106.5 1929 145 1929Z" fill="#F2F2F2"/>
<path d="M1061 1649C1022.5 1649 1022.5 1649 1022.5 1698C1022.5 1649 1022.5 1649 984 1649C1022.5 1649 1022.5 1649 1022.5 1600C1022.5 1649 1022.5 1649 1061 1649Z" fill="#F2F2F2"/>
<path d="M600 1324C561.5 1324 561.5 1324 561.5 1373C561.5 1324 561.5 1324 523 1324C561.5 1324 561.5 1324 561.5 1275C561.5 1324 561.5 1324 600 1324Z" fill="#F2F2F2"/>
<path d="M916 2314C877.5 2314 877.5 2314 877.5 2363C877.5 2314 877.5 2314 839 2314C877.5 2314 877.5 2314 877.5 2265C877.5 2314 877.5 2314 916 2314Z" fill="#F2F2F2"/>
<path d="M231 2228C192.5 2228 192.5 2228 192.5 2277C192.5 2228 192.5 2228 154 2228C192.5 2228 192.5 2228 192.5 2179C192.5 2228 192.5 2228 231 2228Z" fill="#F2F2F2"/>
<path d="M562 1948C523.5 1948 523.5 1948 523.5 1997C523.5 1948 523.5 1948 485 1948C523.5 1948 523.5 1948 523.5 1899C523.5 1948 523.5 1948 562 1948Z" fill="#F2F2F2"/>
<path d="M195 3377C156.5 3377 156.5 3377 156.5 3426C156.5 3377 156.5 3377 118 3377C156.5 3377 156.5 3377 156.5 3328C156.5 3377 156.5 3377 195 3377Z" fill="#F2F2F2"/>
<path d="M1340 1168C1294 1168 1294 1168 1294 1217C1294 1168 1294 1168 1248 1168C1294 1168 1294 1168 1294 1119C1294 1168 1294 1168 1340 1168Z" fill="#F2F2F2"/>
<path d="M296 1672C257.5 1672 257.5 1672 257.5 1721C257.5 1672 257.5 1672 219 1672C257.5 1672 257.5 1672 257.5 1623C257.5 1672 257.5 1672 296 1672Z" fill="#F2F2F2"/>
<path d="M142 1017C103.5 1017 103.5 1017 103.5 1066C103.5 1017 103.5 1017 65 1017C103.5 1017 103.5 1017 103.5 968C103.5 1017 103.5 1017 142 1017Z" fill="#F2F2F2"/>
</g>
<defs>
<linearGradient id="paint0_linear_508_166" x1="720" y1="0" x2="720" y2="3632" gradientUnits="userSpaceOnUse">
<stop offset="0.254924" stop-color="#09051F"/>
<stop offset="0.872538" stop-color="#C0CFFA"/>
</linearGradient>
<clipPath id="clip0_508_166">
<rect width="1440" height="3632" fill="white"/>
</clipPath>
</defs>
</svg>
